<svg xmlns="http://www.w3.org/2000/svg" viewBox="0 0 161 19"><g id="AngelList Venture" fill="currentColor" fill-rule="evenodd"><path d="m31.7059789 3.82531437c.7047692 0 1.3228818.13237788 1.8552013.39713364.5317438.26475577.9774067.71036991 1.3369887 1.33771334h.0414571v-1.44251249h2.7983484v10.11674734c0 .43197-.0590187.9263549-.1761923 1.4837355-.1174616.5573805-.3696584 1.0764412-.7565905 1.5574722-.38722.4804504-.9466018.888035-1.6790091 1.2224633-.7326951.3347186-1.7135566.5019328-2.943448.5019328-.5254101 0-1.0608965-.0664792-1.6064593-.1988571-.5461386-.1323779-1.0436227-.3382023-1.4924525-.6166023-.4491176-.2789805-.8222308-.6372137-1.1193394-1.0764412-.2971086-.4386468-.4663914-.9649651-.5078484-1.5780837h2.9227195c.1379022.5573806.4076606.9440634.8084118 1.1600483.4007511.215985.8633999.3242678 1.38881.3242678.8291402 0 1.4334338-.2511116 1.8137443-.7527541.3800226-.5013522.5628366-1.1359532.5493055-1.9017708v-1.4213204h-.0414571c-.318125.571315-.7704095.9925438-1.3577172 1.2645571-.5875956.271723-1.2057081.4072942-1.8552014.4072942-.8015022 0-1.4924525-.1425384-2.0728507-.4284863-.5803981-.2853672-1.0571538-.6755336-1.4302669-1.1702088-.3731132-.4946753-.6460385-1.0729576-.8187761-1.734847-.1730254-.6618894-.2591063-1.36209876-.2591063-2.100628 0-.69672569.1001878-1.36935629.3005634-2.01731119.2000876-.64795489.4940294-1.21897966.8809615-1.7136549.3866442-.49467525.8671425-.88832526 1.4406312-1.18124036.5734887-.29262479 1.2333462-.43864688 1.9795725-.43864688zm13.096098 0c.9120543 0 1.7063591.17737475 2.3837783.53270485.6768433.35562041 1.2333461.83287751 1.6683569 1.43206161.4355865.59918409.749681 1.28197527.9437228 2.04808324.1931782.76668856.2619853 1.56792311.2067093 2.40399393h-7.7314452c.041457.9614815.2830017 1.6582072.7252098 2.0898868.4424961.4322602 1.0781703.6482452 1.9073106.6482452.5939293 0 1.1052325-.149796 1.5341974-.4496784.4278134-.2993017.6903744-.6166022.7873954-.9510306h2.5910633c-.414858 1.2959098-1.0502443 2.2228453-1.9070226 2.7802259-.8570662.5573805-1.8932036.8360708-3.109276.8360708-.8432472 0-1.6032925-.1358615-2.2801358-.4075845-.6771312-.271723-1.2509078-.6584058-1.7204661-1.1600483-.4701341-.5016425-.8328829-1.1008266-1.0882466-1.7975523-.2559395-.6967257-.3834774-1.463124-.3834774-2.29948509 0-.80791151.1309926-1.56037526.3938416-2.25739126.2622732-.69643539.6353864-1.29910311 1.1193394-1.80800317.4833773-.50831946 1.0603207-.90893673 1.7308303-1.20185183.6699339-.29262479 1.4127054-.43864688 2.2283146-.43864688zm33.1978555 0c.5801103 0 1.1429469.05573805 1.6890854.16721416.5458507.11147611 1.0329706.29959205 1.4613598.56434782.4283891.26475576.7845164.61660224 1.067806 1.05524912.2827138.43922749.4525724.99312442.5078484 1.66169078h-2.7986363c-.0411691-.57102476-.2559395-.95770752-.6420079-1.16004828-.387508-.20176015-.8435351-.30307568-1.3683694-.30307568-.1658281 0-.345763.01074119-.5389412.03135266-.1934661.02119207-.3702342.06647924-.5288648.13615181-.1589186.06967257-.293366.1706978-.4042059.30307568-.110552.13237788-.1658281.31004294-.1658281.53270486 0 .26504606.0967331.48103103.2901991.64795489.1934661.16750447.4459508.30307568.7568784.40787484.3109276.10421855.6661912.19827652 1.0672303.2818836.4007511.08360708.8084117.17447173 1.2229819.27172302.4283891.0978319.8467019.21627527 1.2543625.35562041.4070849.13934514.7698338.32397745 1.0882467.55389692.3175492.22991948.5734887.51557702.7669547.85668232.1931782.3416859.2899112.7629146.2899112 1.2645571 0 .7109505-.1416448 1.3063607-.4249344 1.7873917-.2835775.4804505-.6529479.8671332-1.1089751 1.1600483-.4560272.2926248-.9776946.4984492-1.5647144.616312-.5875956.1184433-1.1852675.1779553-1.7933037.1779553-.6218552 0-1.2296036-.0627053-1.8241087-.1881159-.5942172-.125701-1.1227941-.3344284-1.5857307-.6270532-.4632246-.2926247-.8426714-.6793075-1.13978-1.1603385-.2973965-.4804505-.4597698-1.0831182-.4874078-1.8080032h2.7986363c0 .3207841.0650645.5959908.1969208.8259102.1307048.2296292.3005634.4177451.5075605.5640575.207573.1463124.4459508.2545952.7151335.3242678.2694706.0696726.5495934.1042185.8395046.1042185.2075729 0 .4252223-.0240951.6529479-.0731562.2283015-.0484804.4352987-.1254106.6218553-.2299194.1868444-.1042186.3425961-.2435637.4666793-.4177451.124371-.1741815.1862686-.3936501.1862686-.6586961 0-.4456142-.2936538-.7800425-.8806736-1.003285-.5875956-.222662-1.4063716-.4456142-2.456616-.6688567-.4283891-.0972513-.8461261-.21221103-1.2537868-.34487922-.4076606-.13208758-.7704095-.306269-1.0882466-.52254427-.318125-.21569466-.5734887-.48741768-.7669548-.81516906-.1940418-.32717078-.2901991-.72778805-.2901991-1.20156152 0-.6967257.1344474-1.26804077.4044938-1.71423551.2691827-.44561415.6247342-.79746062 1.0672302-1.05524913.4419203-.25778851.9394045-.43922749 1.4921646-.54344604.5527602-.10450886 1.1196273-.15676328 1.7000255-.15676328zm10.3202055-2.94714969v3.23948418h2.1560526v1.98595853h-2.1560526v5.35056301c0 .5016425.0832019.8363612.2490299 1.003285.166116.1675045.4977721.2511116.9949684.2511116.165828 0 .3241708-.0069673.4767556-.0211921.1517212-.0136442.2968207-.034546.4352987-.062415v2.2989045c-.2487421.0418035-.5254101.0696726-.8288524.0838974-.304306.0136442-.6011267.0206114-.8913258.0206114-.4560272 0-.8884469-.0313526-1.2955317-.0937676-.4082364-.0629956-.7669548-.1849226-1.0778824-.3660713-.3109276-.1808584-.5567907-.4386469-.7361499-.7733655-.1799349-.3344284-.2691827-.7730753-.2691827-1.3165213v-6.37504011h-1.7832273v-1.98595853h1.7832273v-3.23948418zm-79.38615138-.87816468 5.53451138 14.9238644h-3.3787466l-1.11933943-3.3233816h-5.53451137l-1.16079639 3.3233816h-3.27510411l5.59669689-14.9238644zm12.62164548 3.82531437c.7876833 0 1.4334339.10799248 1.9381154.32368714.5041058.21627527.9016901.51586732 1.1918892.89877615.2901991.38348943.4937415.85029565.6114909 1.40070895.1171737.5504133.1761924 1.15975798.1761924 1.82861464v6.64676315h-2.943448v-6.1030268c0-.89180889-.138478-1.55747223-.4145702-1.99611912-.276668-.43922749-.7669547-.65840578-1.471724-.65840578-.8017902 0-1.3821883.24037037-1.7411946.72082079-.359582.48103104-.5389412 1.2718147-.5389412 2.37235099v5.66437992h-2.943448v-10.80621554h2.7983485v1.5049275h.0621855c.3731131-.62705313.8567783-1.08311816 1.4509955-1.36877569.5939293-.28565754 1.2022534-.4284863 1.8241086-.4284863zm32.9591899-3.82531437v14.9238644h-2.9431601v-14.9238644zm5.6010153 0v12.1651209h7.2132325v2.7587435h-10.4676081v-14.9238644zm11.375344 4.11764886v10.80621554h-2.943448v-10.80621554zm-39.0597046 1.94415499c-.4145701 0-.7704095.08331678-1.0675181.25053095-.2973965.16750446-.5461386.39394031-.7462263.67930755-.2003755.28594783-.3454751.61340891-.4352986.98238323-.0901114.36955492-.1347353.75623768-.1347353 1.16033858 0 .39016639.0380023.77684915.1140068 1.15975794.0757166.3834895.2072851.7283687.3938416 1.034928.1865566.3065593.4318439.5573806.735862.7521734.3040181.1953735.6840407.2926248 1.1400679.2926248.4145701 0 .7804859-.0833167 1.0986109-.2508212.3178371-.1672142.5803982-.3898761.7876832-.6688567.2072851-.2784.3627489-.5954101.4663914-.9510306.1036426-.3553301.1554639-.727788.1554639-1.11824469 0-.44561414-.0414571-.86713319-.1243711-1.26455714-.082914-.39713364-.2211041-.74868982-.4145701-1.05524912-.193754-.30655931-.4491177-.5504133-.7669548-.73156198-.318125-.18114868-.7188761-.27172302-1.2022534-.27172302zm-25.17649914-2.38280188h-.04145702l-1.92775115 5.47597366h3.8347738zm37.46418534 2.38280188c-.470134 0-.860233.08012345-1.1711606.24008006-.3109276.16053721-.5596697.35910403-.7462263.59599077-.1868444.23688674-.318125.48770799-.3938416.75217345-.0762924.26504607-.1212042.5016425-.1347353.71095051h4.7882851c-.13819-.75275405-.3834774-1.32377882-.735862-1.71423551-.3526725-.38987609-.8881589-.58495928-1.6064593-.58495928zm26.7720184-6.06180385v2.44550719h-2.943448v-2.44550719z"/><path d="m101.18 15 5.08-14.28h-1.98l-4.12 12.38h-.04l-4.08-12.38h-2.04l5.02 14.28zm12.4-6.16h-5.94c.026667-.400002.113333-.7766649.26-1.13s.346665-.663332.6-.93.556665-.4766659.91-.63.749998-.23 1.19-.23c.426669 0 .816665.0766659 1.17.23s.659999.3599987.92.62.466666.5699982.62.93.243333.739998.27 1.14zm1.64 2.88h-1.68c-.146667.6800034-.449998 1.186665-.91 1.52s-1.049996.5-1.77.5c-.560003 0-1.046665-.0933324-1.46-.28s-.753332-.4366651-1.02-.75-.459999-.6733313-.58-1.08-.173333-.8366644-.16-1.29h7.74c.026667-.6266698-.029999-1.2866632-.17-1.98s-.393332-1.3333304-.76-1.92c-.366669-.5866696-.85333-1.0699981-1.46-1.45s-1.369995-.57-2.29-.57c-.70667 0-1.356664.133332-1.95.4s-1.106664.6399976-1.54 1.12c-.433336.48-.769999 1.0466634-1.01 1.7s-.36 1.3733294-.36 2.16c.026667.7866706.143332 1.51333.35 2.18s.516665 1.2399976.93 1.72.92333.853332 1.53 1.12 1.323329.4 2.15.4c1.173339 0 2.146663-.2933304 2.92-.88s1.273332-1.4599942 1.5-2.62zm1.92-7.06v10.34h1.7v-5.84c0-.466669.063333-.8966647.19-1.29s.316665-.7366652.57-1.03.569998-.5199992.95-.68.829997-.24 1.35-.24c.653337 0 1.166665.1866648 1.54.56s.56.8799968.56 1.52v7h1.7v-6.8c0-.5600028-.056666-1.0699977-.17-1.53s-.309999-.856665-.59-1.19-.646664-.5933324-1.1-.78-1.019997-.28-1.7-.28c-1.533341 0-2.65333.6266604-3.36 1.88h-.04v-1.64zm13.48 0v-3.1h-1.7v3.1h-1.76v1.5h1.76v6.58c0 .4800024.046666.8666652.14 1.16s.236666.5199992.43.68.446665.2699997.76.33.689998.09 1.13.09h1.3v-1.5h-.78c-.266668 0-.483332-.0099999-.65-.03-.166667-.0200001-.296666-.063333-.39-.13s-.156667-.1599994-.19-.28c-.033334-.1200006-.05-.279999-.05-.48v-6.42h2.06v-1.5zm12.5 10.34v-10.34h-1.7v5.84c0 .466669-.063333.8966647-.19 1.29s-.316665.7366652-.57 1.03-.569998.5199992-.95.68c-.380002.16-.829997.24-1.35.24-.653337 0-1.166665-.1866648-1.54-.56s-.56-.8799968-.56-1.52v-7h-1.7v6.8c0 .5600028.056666 1.0699977.17 1.53s.309999.856665.59 1.19.646664.5899991 1.1.77 1.019997.27 1.7.27c.760004 0 1.419997-.1499985 1.98-.45s1.019998-.7699968 1.38-1.41h.04v1.64zm13.16-10.58c.920005 0 1.68333.1899981 2.29.57s1.093331.8633304 1.46 1.45.619999 1.2266632.76 1.92.196667 1.3533302.17 1.98h-7.74c-.013333.4533356.039999.8833313.16 1.29s.313332.7666651.58 1.08.606665.5633324 1.02.75.899997.28 1.46.28c.720004 0 1.309998-.166665 1.77-.5s.763333-.8399966.91-1.52h1.68c-.226668 1.1600058-.726663 2.0333304-1.5 2.62s-1.746661.88-2.92.88c-.826671 0-1.54333-.133332-2.15-.4s-1.116665-.6399976-1.53-1.12-.723332-1.05333-.93-1.72-.323333-1.3933294-.35-2.18c0-.7866706.119999-1.5066634.36-2.16s.576664-1.22 1.01-1.7c.433336-.4800024.946664-.853332 1.54-1.12s1.24333-.4 1.95-.4zm-5.491201-.00160009.271201.00160009v1.8c-.680003 0-1.259998.0933324-1.74.28s-.866665.4599982-1.16.82-.506666.7966641-.64 1.31-.2 1.10333-.2 1.77v4.6h-1.7v-10.34h1.6v2.18h.04c.413335-.8400042.919997-1.459998 1.52-1.86s1.359995-.5866668 2.28-.56zm5.391201 1.50160009c-.440002 0-.836665.0766659-1.19.23s-.656665.363332-.91.63-.453333.5766649-.6.93-.233333.729998-.26 1.13h5.94c-.026667-.400002-.116666-.7799982-.27-1.14s-.359999-.6699987-.62-.93-.566665-.4666659-.92-.62-.743331-.23-1.17-.23z"/></g></svg>